# xmcd CD database file
#
# Track frame offsets:
#	182
#	17787
#	36797
#	54512
#	74995
#	92397
#	108635
#	125097
#	141400
#
# Disc length: 2094 seconds
#
# Revision: 1
# Processed by: cddbd v1.4PL0 Copyright (c) Steve Scherf et al.
# Submitted via: CDex 1.40PlusFr
#
DISCID=87082c09
DTITLE=bill deraime - Bill Deraime
DYEAR=1989
DGENRE=Chanson
TTITLE0=Quand y 'a un tube
TTITLE1=Sur le bord de la route
TTITLE2=Quelqu'un m 'appelle
TTITLE3=Le jour viendra
TTITLE4=Toujours  du bleue
TTITLE5=C 'est un gospel
TTITLE6=Elle marche dans la nuit
TTITLE7=Ego
TTITLE8=Trop tard
EXTD=YEAR: 1989 ID3G: 102
EXTT0=
EXTT1=
EXTT2=
EXTT3=
EXTT4=
EXTT5=
EXTT6=
EXTT7=
EXTT8=
PLAYORDER=
